<svg width="338" height="70" viewBox="0 0 338 70" fill="none" xmlns="http://www.w3.org/2000/svg">
<path d="M20.5251 69.4501L23.1778 65.3315C12.7067 58.979 5.93534 47.9495 5.93534 34.8955C5.93534 21.9113 12.7067 10.8818 23.1778 4.45948L20.5251 0.340847C8.58802 6.90274 0.490367 19.6775 0.490367 34.8955C0.490367 50.1135 8.58802 62.8882 20.5251 69.4501ZM55.5596 18.9096C50.2543 18.9096 45.7866 22.5396 42.8547 29.4505H41.2491H41.3189H41.2491L42.7849 4.38968L26.0311 6.13486V12.6967H31.5459V55H38.1078L41.7378 50.3229C43.9716 54.0227 47.5318 56.0471 51.9297 56.0471C61.2838 56.0471 67.7061 48.2287 67.7061 36.0822C67.7061 25.6111 62.68 18.9096 55.5596 18.9096ZM49.277 47.1118C47.5318 47.1118 45.3678 46.5533 42.7151 45.576V32.1032H42.7849C45.2281 30.0788 47.9506 28.8921 50.2543 28.8921C54.1635 28.8921 56.2577 31.6145 56.2577 37.1991C56.2577 43.761 53.8145 47.1118 49.277 47.1118ZM82.8058 16.3267C86.6452 16.3267 89.7865 13.2552 89.7865 9.34599C89.7865 5.50659 86.6452 2.36526 82.8058 2.36526C78.9664 2.36526 75.825 5.50659 75.825 9.34599C75.825 13.2552 78.9664 16.3267 82.8058 16.3267ZM88.8092 47.9495V19.2586L71.5668 21.0736V28.7524H77.64V47.3212H71.497V55H94.0448V48.5079L88.8092 47.9495ZM118.893 46.9023C112.61 46.9023 108.352 44.8081 107.305 39.782H128.107L131.458 33.2201C131.319 24.564 124.896 18.9096 115.333 18.9096C104.233 18.9096 96.9734 26.4488 96.9734 37.2689C96.9734 48.7173 105.071 56.0471 116.938 56.0471C122.034 56.0471 127.13 54.651 130.341 52.3473L128.526 44.9477C126.292 46.0647 122.872 46.9023 118.893 46.9023ZM115.053 27.2865C119.172 27.2865 121.197 30.0788 120.778 34.4068L107.235 34.6163C107.933 30.0788 110.935 27.2865 115.053 27.2865ZM175.091 47.8797V30.707C175.091 22.8188 172.019 18.9096 166.016 18.9096C160.361 18.9096 155.544 22.6094 152.333 29.4505H150.728L151.705 19.2586L134.951 21.0736V28.7524H141.025V47.3212H134.951V55H156.033V48.5079L152.194 48.0193V32.1032C154.777 30.2184 157.988 28.8921 160.082 28.8921C162.944 28.8921 163.921 30.2184 163.921 34.1974V47.3212H160.361V55H180.047V48.5079L175.091 47.8797ZM181.423 69.4501C193.36 62.8882 201.458 50.1135 201.458 34.8955C201.458 19.6775 193.36 6.90274 181.423 0.340847L178.771 4.45948C189.242 10.8818 196.013 21.9113 196.013 34.8955C196.013 47.9495 189.242 58.979 178.771 65.3315L181.423 69.4501ZM232.714 16.3267C236.554 16.3267 239.695 13.2552 239.695 9.34599C239.695 5.50659 236.554 2.36526 232.714 2.36526C228.875 2.36526 225.734 5.50659 225.734 9.34599C225.734 13.2552 228.875 16.3267 232.714 16.3267ZM238.718 47.9495V19.2586L221.475 21.0736V28.7524H227.549V47.3212H221.406V55H243.953V48.5079L238.718 47.9495ZM268.383 46.5533C261.332 46.5533 258.121 42.8535 258.121 36.8501C258.121 31.0561 260.843 27.5657 266.498 27.5657C267.056 27.5657 267.545 27.5657 267.964 27.6355C268.173 30.707 270.756 33.1503 273.897 33.1503C277.039 33.1503 279.203 30.9863 279.203 27.7751C279.203 22.6792 273.339 18.9096 265.311 18.9096C254.351 18.9096 246.812 26.3092 246.812 37.4085C246.812 48.5079 254.561 56.0471 266.288 56.0471C270.965 56.0471 274.875 54.7208 278.295 52.4869L276.48 44.5987C274.037 45.7854 271.733 46.5533 268.383 46.5533ZM294.137 16.3267C297.976 16.3267 301.117 13.2552 301.117 9.34599C301.117 5.50659 297.976 2.36526 294.137 2.36526C290.297 2.36526 287.156 5.50659 287.156 9.34599C287.156 13.2552 290.297 16.3267 294.137 16.3267ZM300.14 47.9495V19.2586L282.898 21.0736V28.7524H288.971V47.3212H282.828V55H305.376V48.5079L300.14 47.9495ZM325.278 8.92715L327.581 38.5255H335.26L337.564 8.92715H325.278ZM331.421 56.0471C335.051 56.0471 337.983 53.1152 337.983 49.4852C337.983 45.925 335.051 42.9931 331.421 42.9931C327.791 42.9931 324.859 45.925 324.859 49.4852C324.859 53.1152 327.791 56.0471 331.421 56.0471Z" fill="white"/>
</svg>
